{
  "accessors": [
    {
      "bufferView": 1,
      "componentType": 5126,
      "count": 14168,
      "max": [
        0.33235451579093933,
        0.1629611849784851,
        1.756761074066162
      ],
      "min": [
        -0.32588836550712585,
        -0.20141471922397614,
        -0.0008020251989364624
      ],
      "type": "VEC3"
    },
    {
      "bufferView": 1,
      "byteOffset": 170016,
      "componentType": 5126,
      "count": 14168,
      "max": [
        0.99993896484375,
        0.9995195865631104,
        0.9991081953048706
      ],
      "min": [
        -0.99993896484375,
        -0.9997993111610413,
        -0.9998325109481812
      ],
      "type": "VEC3"
    },
    {
      "bufferView": 0,
      "componentType": 5125,
      "count": 14538,
      "type": "SCALAR"
    }
  ],
  "asset": {
    "extras": {
      "author": "Niki (https://sketchfab.com/rzhavichev.nikita)",
      "license": "SKETCHFAB Standard (https://sketchfab.com/licenses)",
      "source": "https://sketchfab.com/3d-models/man-people-b03bcd838d2b4111a2d41ee24c4d4467",
      "title": "Man - People"
    },
    "generator": "Sketchfab-16.29.0",
    "version": "2.0"
  },
  "bufferViews": [
    {
      "buffer": 0,
      "byteLength": 58152,
      "name": "floatBufferViews",
      "target": 34963
    },
    {
      "buffer": 0,
      "byteLength": 340032,
      "byteOffset": 58152,
      "byteStride": 12,
      "name": "floatBufferViews",
      "target": 34962
    }
  ],
  "buffers": [
    {
      "byteLength": 398184,
      "uri": "scene.bin"
    }
  ],
  "materials": [
    {
      "doubleSided": true,
      "name": "Scene_-_Root",
      "pbrMetallicRoughness": {
        "metallicFactor": 0.0,
        "roughnessFactor": 0.6
      }
    }
  ],
  "meshes": [
    {
      "name": "Man.001__0",
      "primitives": [
        {
          "attributes": {
            "NORMAL": 1,
            "POSITION": 0
          },
          "indices": 2,
          "material": 0,
          "mode": 4
        }
      ]
    }
  ],
  "nodes": [
    {
      "children": [
        1
      ],
      "matrix": [
        1.0,
        0.0,
        0.0,
        0.0,
        0.0,
        2.220446049250313e-16,
        -1.0,
        0.0,
        0.0,
        1.0,
        2.220446049250313e-16,
        0.0,
        0.0,
        0.0,
        0.0,
        1.0
      ],
      "name": "Sketchfab_model"
    },
    {
      "children": [
        2
      ],
      "matrix": [
        0.009999999776482582,
        0.0,
        0.0,
        0.0,
        0.0,
        0.0,
        0.009999999776482582,
        0.0,
        0.0,
        -0.009999999776482582,
        0.0,
        0.0,
        0.0,
        0.0,
        0.0,
        1.0
      ],
      "name": "8a6ae2a9a1ef47b0b906d21008ff16be.fbx"
    },
    {
      "children": [
        3
      ],
      "name": "RootNode"
    },
    {
      "children": [
        4
      ],
      "matrix": [
        72.97169494628906,
        0.0,
        0.0,
        0.0,
        0.0,
        -2.058750204508931e-05,
        -72.97169494628616,
        0.0,
        0.0,
        72.97169494628616,
        -2.058750204508931e-05,
        0.0,
        0.0,
        0.0,
        0.0,
        1.0
      ],
      "name": "Man.001"
    },
    {
      "mesh": 0,
      "name": "Man.001__0"
    }
  ],
  "scene": 0,
  "scenes": [
    {
      "name": "Sketchfab_Scene",
      "nodes": [
        0
      ]
    }
  ]
}
